<mxfile host="app.diagrams.net" modified="2024-05-16T08:04:00.907Z" agent="Mozilla/5.0 (X11; Linux x86_64) AppleWebKit/537.36 (KHTML, like Gecko) Chrome/124.0.0.0 Safari/537.36" etag="QRJDuEOliO6O1d7ALKiF" version="24.3.1" type="device">
  <diagram name="Page-1" id="aAreGUmjJRyfueql-lJ-">
    <mxGraphModel dx="474" dy="746" grid="1" gridSize="10" guides="1" tooltips="1" connect="1" arrows="1" fold="1" page="1" pageScale="1" pageWidth="1169" pageHeight="827" math="0" shadow="0">
      <root>
        <mxCell id="0" />
        <mxCell id="1" parent="0" />
        <mxCell id="wkdvruWMYDuAp6-lknD4-10" style="edgeStyle=orthogonalEdgeStyle;rounded=0;orthogonalLoop=1;jettySize=auto;html=1;exitX=0.5;exitY=0;exitDx=0;exitDy=0;" parent="1" source="X4wWXS8dbHF6qvFkp25p-3" target="wkdvruWMYDuAp6-lknD4-2" edge="1">
          <mxGeometry relative="1" as="geometry" />
        </mxCell>
        <mxCell id="X4wWXS8dbHF6qvFkp25p-4" style="edgeStyle=orthogonalEdgeStyle;rounded=0;orthogonalLoop=1;jettySize=auto;html=1;exitX=0.5;exitY=0;exitDx=0;exitDy=0;" edge="1" parent="1" source="wkdvruWMYDuAp6-lknD4-1" target="X4wWXS8dbHF6qvFkp25p-3">
          <mxGeometry relative="1" as="geometry" />
        </mxCell>
        <mxCell id="wkdvruWMYDuAp6-lknD4-1" value="Database" style="rounded=0;whiteSpace=wrap;html=1;" parent="1" vertex="1">
          <mxGeometry x="200" y="520" width="120" height="60" as="geometry" />
        </mxCell>
        <mxCell id="wkdvruWMYDuAp6-lknD4-7" style="edgeStyle=orthogonalEdgeStyle;rounded=0;orthogonalLoop=1;jettySize=auto;html=1;" parent="1" source="wkdvruWMYDuAp6-lknD4-2" target="wkdvruWMYDuAp6-lknD4-5" edge="1">
          <mxGeometry relative="1" as="geometry" />
        </mxCell>
        <mxCell id="wkdvruWMYDuAp6-lknD4-8" style="edgeStyle=orthogonalEdgeStyle;rounded=0;orthogonalLoop=1;jettySize=auto;html=1;" parent="1" source="wkdvruWMYDuAp6-lknD4-2" target="wkdvruWMYDuAp6-lknD4-6" edge="1">
          <mxGeometry relative="1" as="geometry" />
        </mxCell>
        <mxCell id="wkdvruWMYDuAp6-lknD4-2" value="Services" style="rounded=0;whiteSpace=wrap;html=1;" parent="1" vertex="1">
          <mxGeometry x="200" y="320" width="120" height="60" as="geometry" />
        </mxCell>
        <mxCell id="wkdvruWMYDuAp6-lknD4-3" value="View" style="rounded=0;whiteSpace=wrap;html=1;" parent="1" vertex="1">
          <mxGeometry x="200" y="120" width="120" height="60" as="geometry" />
        </mxCell>
        <mxCell id="wkdvruWMYDuAp6-lknD4-5" value="Entity" style="rounded=0;whiteSpace=wrap;html=1;" parent="1" vertex="1">
          <mxGeometry x="360" y="320" width="120" height="60" as="geometry" />
        </mxCell>
        <mxCell id="wkdvruWMYDuAp6-lknD4-9" style="edgeStyle=orthogonalEdgeStyle;rounded=0;orthogonalLoop=1;jettySize=auto;html=1;" parent="1" source="wkdvruWMYDuAp6-lknD4-6" target="wkdvruWMYDuAp6-lknD4-3" edge="1">
          <mxGeometry relative="1" as="geometry" />
        </mxCell>
        <mxCell id="wkdvruWMYDuAp6-lknD4-6" value="Controllers" style="rounded=0;whiteSpace=wrap;html=1;" parent="1" vertex="1">
          <mxGeometry x="200" y="220" width="120" height="60" as="geometry" />
        </mxCell>
        <mxCell id="X4wWXS8dbHF6qvFkp25p-2" style="edgeStyle=orthogonalEdgeStyle;rounded=0;orthogonalLoop=1;jettySize=auto;html=1;" edge="1" parent="1" source="X4wWXS8dbHF6qvFkp25p-1" target="wkdvruWMYDuAp6-lknD4-1">
          <mxGeometry relative="1" as="geometry" />
        </mxCell>
        <mxCell id="X4wWXS8dbHF6qvFkp25p-1" value="H2" style="rounded=0;whiteSpace=wrap;html=1;" vertex="1" parent="1">
          <mxGeometry x="360" y="520" width="120" height="60" as="geometry" />
        </mxCell>
        <mxCell id="X4wWXS8dbHF6qvFkp25p-3" value="Repositories" style="rounded=0;whiteSpace=wrap;html=1;" vertex="1" parent="1">
          <mxGeometry x="200" y="420" width="120" height="60" as="geometry" />
        </mxCell>
      </root>
    </mxGraphModel>
  </diagram>
</mxfile>
